<?xml version="1.0" encoding="UTF-8" standalone="no"?>
<svg
   xmlns:dc="http://purl.org/dc/elements/1.1/"
   xmlns:cc="http://creativecommons.org/ns#"
   xmlns:rdf="http://www.w3.org/1999/02/22-rdf-syntax-ns#"
   xmlns:svg="http://www.w3.org/2000/svg"
   xmlns="http://www.w3.org/2000/svg"
   id="svg5727"
   version="1.1"
   viewBox="0 0 132.29166 132.29167"
   height="500"
   width="500">
  <style type="text/css">
    path { 
      -webkit-animation: rotate 60s linear infinite;
      -moz-animation: rotate 60s linear infinite;
      animation: rotate 60s linear infinite;
      transform-origin: 50% 50%;
    }
    
    @-webkit-keyframes rotate {
      100% {
        transform: rotate(360deg);
      }
    }
    @keyframes rotate {
      100% {
        transform: rotate(360deg);
      }
    }
  </style>
  <defs
     id="defs5721" />
  <metadata
     id="metadata5724">
    <rdf:RDF>
      <cc:Work
         rdf:about="">
        <dc:format>image/svg+xml</dc:format>
        <dc:type
           rdf:resource="http://purl.org/dc/dcmitype/StillImage" />
        <dc:title></dc:title>
      </cc:Work>
    </rdf:RDF>
  </metadata>
  <g
     transform="translate(0,-164.70832)"
     id="layer1">
    <path
       style="fill:none;fill-opacity:1;stroke:#38f43b;stroke-width:1.32291667;stroke-miterlimit:4;stroke-dasharray:none;stroke-opacity:1"
       d="m 93.170911,230.85218 c 0.003,0 3.11005,-0.24064 6.58113,-4.16606 3.471079,-3.92542 6.849629,-11.71473 5.641599,-21.47674 -1.20803,-9.76201 -7.342489,-21.13303 -18.249699,-28.6031 -10.90719,-7.47007 -26.375695,-10.5788 -40.895846,-6.92269 -14.52015,3.65612 -27.584563,14.05937 -34.415799,27.279 -6.8312364,13.21963 -7.2545554,28.78658 -2.5682004,40.86143 4.6863604,12.07484 14.1199434,20.33035 22.9645334,23.59311 8.844589,3.26276 16.676597,1.75154 20.850066,-0.49473 4.173474,-2.24628 4.749797,-4.76005 4.628465,-4.24156 -0.12133,0.51851 -0.475758,4.17051 2.846168,8.85027 3.321925,4.67975 10.583362,9.97822 20.763223,11.06464 10.17988,1.08642 22.986669,-2.44413 32.929049,-11.53793 9.94238,-9.09381 16.52703,-23.63333 16.26781,-38.67989 -0.25921,-15.04657 -7.44399,-30.09947 -18.678,-39.68531 -11.234,-9.58583 -26.091999,-13.44257 -38.632658,-11.66546 -12.540665,1.77713 -22.374095,8.89628 -27.328949,16.41212 -4.954855,7.51586 -5.164725,14.97166 -4.060095,19.05306 1.104633,4.08142 3.053101,4.75976 2.096656,4.28671 -0.956442,-0.47305 -5.006176,-1.66 -10.774087,0.69654 -5.767914,2.35654 -12.902357,8.59446 -16.403543,18.62721 -3.501191,10.03274 -2.914285,23.65259 3.796051,35.6095 6.710334,11.95691 19.525118,21.74369 34.291715,24.92531 14.766602,3.18162 31.010331,-0.41967 42.794621,-9.10152 11.784279,-8.68185 18.770299,-22.07886 19.865159,-34.39404 1.09487,-12.3152 -3.49062,-23.11094 -9.38251,-29.32862 -5.89188,-6.21767 -12.617109,-7.90117 -16.326499,-7.77176 -3.7094,0.12935 -4.28527,1.61508 -3.26821,0.37963 1.01707,-1.23544 3.23286,-5.46096 2.17354,-12.09166 -1.05933,-6.63069 -5.79416,-15.38589 -15.084558,-21.27807 -9.290381,-5.89218 -23.02075,-8.43378 -36.401869,-4.55747 -13.381122,3.87631 -25.911563,14.25105 -32.3844164,27.94127 -6.47285,13.69023 -6.621402,30.26554 -0.906029,43.57858 5.7153764,13.31305 17.0026444,22.96146 28.4444264,26.72919 11.441777,3.76774 22.569292,1.77718 29.578178,-2.32059 7.008892,-4.09776 9.852102,-9.83077 10.468949,-12.961 0.616844,-3.13024 -0.566579,-3.45521 0.72775,-1.76178 1.294325,1.69343 5.406479,5.06907 12.578819,5.57931 7.17234,0.51025 17.206149,-2.29313 25.314849,-10.25321 8.10868,-7.96007 13.79051,-21.05831 13.04848,-35.17283 -0.74205,-14.11451 -8.08499,-28.76904 -19.95917,-38.19769 -11.874159,-9.42866 -27.909939,-13.28629 -42.009425,-10.77781 -14.099498,2.50849 -25.812456,11.1751 -31.910552,21.17614 -6.098095,10.00104 -6.611297,20.85418 -4.349893,28.17464 2.261407,7.32047 6.843705,10.97229 9.272929,12.06883 2.429224,1.09652 2.425348,0.0178 0,1.11006 -2.425351,1.0923 -7.006688,4.75469 -9.272929,12.06882 -2.266238,7.31414 -1.73796,18.17134 4.349893,28.17464 6.087854,10.00331 17.814917,18.65603 31.910552,21.17614 14.095636,2.52011 30.127216,-1.35915 42.009425,-10.7778 11.88224,-9.41865 19.20505,-24.08188 19.95917,-38.1977 0.75409,-14.11581 -4.94401,-27.20341 -13.04848,-35.17284 -8.10447,-7.96942 -18.137379,-10.7577 -25.314849,-10.25321 -7.17746,0.5045 -11.279834,3.88279 -12.578819,5.57932 -1.298986,1.69654 -0.114623,1.36385 -0.72775,-1.76177 -0.613185,-3.12563 -3.467433,-8.8596 -10.468949,-12.96102 -7.001512,-4.10141 -18.136306,-6.07761 -29.578178,-2.32057 -11.441877,3.75702 -22.7184,13.42244 -28.4444264,26.72917 -5.726026,13.30674 -5.55534,29.88263 0.906029,43.57858 6.4613734,13.69596 19.0045534,24.05305 32.3844164,27.94129 13.379862,3.88823 27.103389,1.3288 36.401869,-4.55749 9.298508,-5.88627 14.018858,-14.64353 15.084558,-21.27806 1.0657,-6.63454 -1.15414,-10.85124 -2.17354,-12.09165 -1.01939,-1.24043 -0.43589,0.24724 3.26821,0.37961 3.70409,0.13244 10.432399,-1.56226 16.326499,-7.77175 5.8941,-6.20948 10.46668,-17.01558 9.38251,-29.32861 -1.08416,-12.31302 -8.08937,-25.70305 -19.865159,-34.39405 -11.77582,-8.691 -28.024868,-12.27073 -42.794621,-9.10151 -14.769748,3.1692 -27.570133,12.97209 -34.291715,24.9253 -6.721584,11.95321 -7.289996,25.57019 -3.796051,35.60951 3.493939,10.03931 10.63311,16.26394 16.403543,18.6272 5.770433,2.36327 9.812456,1.17114 10.774087,0.69654 0.961636,-0.4746 -0.989915,0.21119 -2.096656,4.2867 -1.106744,4.07551 -0.886021,11.53663 4.060095,19.05306 4.946118,7.51644 14.792708,14.62479 27.328949,16.41212 12.536239,1.78733 27.391468,-2.08992 38.632658,-11.66545 11.24119,-9.57552 18.40604,-24.63832 18.678,-39.68532 0.27198,-15.04699 -6.33133,-29.57597 -16.26781,-38.67988 -9.93649,-9.10388 -22.744329,-12.61614 -32.929049,-11.53793 -10.1847,1.0782 -17.434466,6.38366 -20.763223,11.06465 -3.32876,4.68098 -2.968271,8.32644 -2.846168,8.85025 0.122113,0.52381 -0.461373,-1.99416 -4.628465,-4.24155 -4.167087,-2.24738 -12.006649,-3.74855 -20.850066,-0.49473 -8.843412,3.25383 -18.268955,11.52485 -22.9645334,23.59312 -4.695573,12.06827 -4.251362,27.63693 2.5682004,40.86141 6.819562,13.2245 19.897927,23.61038 34.415799,27.27901 14.517873,3.66862 29.980168,0.53962 40.895846,-6.92269 10.9157,-7.46231 17.032899,-18.83808 18.249699,-28.60311 1.2168,-9.76503 -2.17054,-17.5446 -5.641599,-21.47672 -3.47108,-3.93213 -6.57847,-4.16606 -6.58113,-4.16606"
       title="(17 * cos(t)) - (7 * cos(17*t / 7)) (17 * sin(t)) - (7 * sin(17*t / 7))"
       id="path6537" />
  </g>
</svg>
